<svg width="103" height="25" viewBox="0 0 103 25" fill="none" xmlns="http://www.w3.org/2000/svg">
<path d="M8.04663e-07 18.4767V17.2042H0.868876C1.10694 17.2042 1.32988 17.1618 1.53771 17.0772C1.74554 16.9926 1.91425 16.8471 2.04384 16.6409C2.17344 16.4346 2.23824 16.1578 2.23824 15.8103V4.04883C2.23824 3.67605 2.17112 3.3859 2.03688 3.17838C1.90265 2.97087 1.72466 2.82479 1.50291 2.74015C1.28116 2.65551 1.03269 2.61319 0.757501 2.61319H8.04663e-07V1.34067H8.29266V2.61319H7.47947C7.16459 2.61319 6.90324 2.65383 6.69541 2.73511C6.48759 2.81639 6.3288 2.95679 6.21905 3.15631C6.1093 3.35582 6.05442 3.63061 6.05442 3.98067V17.0122H10.5179C10.8865 17.0122 11.2003 16.932 11.4592 16.7717C11.718 16.6114 11.9311 16.3725 12.0983 16.0551C12.2655 15.7376 12.4009 15.3599 12.5046 14.9218L12.8978 13.1218H14.2432L14.0752 18.4767H8.04663e-07ZM14.2195 18.4767V17.2042H14.5176C14.8418 17.2042 15.131 17.1566 15.3852 17.0614C15.6394 16.9661 15.8423 16.7956 15.9938 16.5497C16.1453 16.3037 16.2211 15.9534 16.2211 15.4987V8.48934C16.2211 8.05575 16.143 7.72527 15.9869 7.49792C15.8307 7.27056 15.6255 7.1116 15.3713 7.02103C15.117 6.93047 14.8325 6.88519 14.5176 6.88519H14.2229V5.61267H19.8693V15.504C19.8693 15.9536 19.9434 16.3024 20.0915 16.5504C20.2397 16.7984 20.4449 16.9694 20.7071 17.0633C20.9693 17.1572 21.2579 17.2042 21.5728 17.2042H21.8569V18.4767H14.2195ZM17.9353 3.44934C17.3564 3.44934 16.8699 3.30718 16.476 3.02285C16.0821 2.73852 15.8851 2.3058 15.8851 1.72467C15.8851 1.10899 16.0821 0.667618 16.476 0.400571C16.8699 0.133524 17.3564 9.53674e-07 17.9353 9.53674e-07C18.4889 9.53674e-07 18.9713 0.133524 19.3825 0.400571C19.7938 0.667618 19.9994 1.10899 19.9994 1.72467C19.9994 2.3058 19.7938 2.73852 19.3825 3.02285C18.9713 3.30718 18.4889 3.44934 17.9353 3.44934ZM22.9964 8.03189C22.8844 7.72374 22.757 7.48694 22.6143 7.3215C22.4716 7.15606 22.2899 7.04199 22.0692 6.97927C21.8486 6.91655 21.561 6.88519 21.2064 6.88519V5.61267H28.5151V6.88519H27.8968C27.4911 6.88519 27.196 6.95631 27.0117 7.09854C26.8274 7.24077 26.7353 7.46084 26.7353 7.75875C26.7353 7.91459 26.7559 8.07148 26.7972 8.2294C26.8385 8.38732 26.8865 8.545 26.9412 8.70244L28.5175 13.2384C28.6429 13.5668 28.7568 13.8986 28.859 14.2339C28.9612 14.5693 29.0561 14.8876 29.1436 15.1888C29.2311 15.4901 29.301 15.7755 29.3531 16.0449C29.4238 15.7275 29.5338 15.3531 29.6831 14.922C29.8324 14.4908 29.9692 14.094 30.0937 13.7314L31.7103 8.89828C31.7903 8.68772 31.8486 8.49044 31.8853 8.30644C31.9219 8.12244 31.9403 7.9386 31.9403 7.75491C31.9403 7.48741 31.8431 7.27558 31.6487 7.11942C31.4543 6.96327 31.1395 6.88519 30.7043 6.88519H30.3414V5.61267H35.6166V6.88519H35.1337C34.8947 6.88519 34.6891 6.93319 34.5169 7.02919C34.3448 7.12519 34.1856 7.29991 34.0396 7.55334C33.8935 7.80678 33.7384 8.1663 33.5742 8.63189L30.1024 18.4767H26.7908L22.9964 8.03189ZM34.8115 18.4767V17.2042H35.1096C35.4338 17.2042 35.723 17.1566 35.9772 17.0614C36.2314 16.9661 36.4343 16.7956 36.5858 16.5497C36.7373 16.3037 36.8131 15.9534 36.8131 15.4987V8.48934C36.8131 8.05575 36.735 7.72527 36.5789 7.49792C36.4227 7.27056 36.2175 7.1116 35.9633 7.02103C35.709 6.93047 35.4245 6.88519 35.1096 6.88519H34.8149V5.61267H40.4613V15.504C40.4613 15.9536 40.5354 16.3024 40.6835 16.5504C40.8317 16.7984 41.0369 16.9694 41.2991 17.0633C41.5613 17.1572 41.8499 17.2042 42.1648 17.2042H42.4489V18.4767H34.8115ZM38.5273 3.44934C37.9484 3.44934 37.4619 3.30718 37.068 3.02285C36.6741 2.73852 36.4771 2.3058 36.4771 1.72467C36.4771 1.10899 36.6741 0.667618 37.068 0.400571C37.4619 0.133524 37.9484 9.53674e-07 38.5273 9.53674e-07C39.0809 9.53674e-07 39.5633 0.133524 39.9745 0.400571C40.3858 0.667618 40.5914 1.10899 40.5914 1.72467C40.5914 2.3058 40.3858 2.73852 39.9745 3.02285C39.5633 3.30718 39.0809 3.44934 38.5273 3.44934ZM42.1378 18.4767V17.2042H42.2741C42.6421 17.2042 42.9578 17.1665 43.2214 17.0911C43.4849 17.0158 43.6907 16.8587 43.8389 16.62C43.987 16.3813 44.0611 16.0232 44.0611 15.5458V8.44758C44.0611 7.99542 43.9917 7.65799 43.8528 7.43527C43.7139 7.21255 43.519 7.06519 43.2682 6.99319C43.0173 6.92119 42.7158 6.88519 42.3638 6.88519H42.2578V5.61267H47.3152L47.6272 7.32H47.7472C48.1318 6.65603 48.6066 6.15388 49.1716 5.81356C49.7365 5.47323 50.4865 5.30306 51.4216 5.30306C52.6949 5.30306 53.6713 5.6681 54.3508 6.39818C55.0303 7.12826 55.3701 8.30802 55.3701 9.93745V15.504C55.3701 15.9907 55.4275 16.3558 55.5424 16.5991C55.6572 16.8425 55.8321 17.0042 56.067 17.0842C56.3019 17.1642 56.5953 17.2042 56.9473 17.2042H57.0534V18.4767H51.7219V10.5865C51.7219 9.55577 51.5885 8.75705 51.3218 8.19033C51.0551 7.62361 50.5683 7.34025 49.8615 7.34025C49.3271 7.34025 48.9036 7.51329 48.591 7.85937C48.2784 8.20545 48.0556 8.66056 47.9226 9.22472C47.7897 9.78888 47.7232 10.401 47.7232 11.0612V15.6379C47.7232 16.0834 47.7903 16.4174 47.9246 16.6402C48.0588 16.8629 48.2513 17.0126 48.5022 17.0892C48.7531 17.1658 49.0545 17.2042 49.4065 17.2042H49.5126V18.4767H42.1378ZM62.124 24.1392C60.2466 24.1392 58.8408 23.8567 57.9067 23.2918C56.9726 22.7268 56.5056 21.9156 56.5056 20.858C56.5056 20.2989 56.6456 19.8167 56.9256 19.4113C57.2056 19.0058 57.5898 18.6831 58.0783 18.4431C58.5668 18.2031 59.1214 18.0537 59.7422 17.9948C59.3201 17.8322 58.9227 17.5893 58.5499 17.2659C58.1771 16.9426 57.9907 16.5017 57.9907 15.9433C57.9907 15.4169 58.1796 14.9614 58.5576 14.5769C58.9355 14.1924 59.4614 13.8216 60.1354 13.4645C59.3824 13.2136 58.7622 12.7724 58.2749 12.1409C57.7875 11.5094 57.5438 10.7101 57.5438 9.74306C57.5438 8.33922 57.9639 7.24826 58.8041 6.47018C59.6442 5.6921 60.9416 5.30306 62.6962 5.30306C63.3093 5.30306 63.8626 5.36218 64.356 5.48041C64.8495 5.59865 65.2732 5.76177 65.6271 5.96977C65.8521 5.7288 66.0882 5.50367 66.3354 5.29439C66.5826 5.08511 66.8611 4.91543 67.1711 4.78535C67.481 4.65527 67.8351 4.59024 68.2335 4.59024C68.76 4.59024 69.1577 4.72816 69.4268 5.004C69.696 5.27985 69.8305 5.60897 69.8305 5.99138C69.8305 6.37378 69.7097 6.70987 69.4679 6.99963C69.2261 7.2894 68.807 7.43428 68.2105 7.43428C68.2105 7.10978 68.1283 6.86249 67.964 6.69241C67.7997 6.52234 67.6039 6.4373 67.3767 6.4373C67.1873 6.4373 67.0218 6.4613 66.8804 6.5093C66.739 6.5573 66.6068 6.61074 66.4839 6.66961C66.8395 6.99633 67.1354 7.39929 67.3717 7.87849C67.6081 8.3577 67.7262 8.94594 67.7262 9.64322C67.7262 10.9015 67.3192 11.9319 66.5051 12.7344C65.691 13.537 64.4214 13.9383 62.6962 13.9383C62.5228 13.9383 62.2912 13.9286 62.0014 13.9092C61.7116 13.8899 61.496 13.8642 61.3546 13.8322C61.1341 13.9272 60.9281 14.0878 60.7366 14.3139C60.5451 14.5399 60.4493 14.7999 60.4493 15.0936C60.4493 15.3538 60.5483 15.5453 60.7462 15.6682C60.9442 15.791 61.253 15.8525 61.6728 15.8525H64.4823C65.5537 15.8525 66.4284 15.9992 67.1065 16.2926C67.7846 16.5861 68.2858 17.0054 68.6101 17.5507C68.9344 18.096 69.0966 18.7544 69.0966 19.5259C69.0966 20.9483 68.5272 22.0728 67.3885 22.8994C66.2498 23.7259 64.495 24.1392 62.124 24.1392ZM62.186 22.6987C63.1245 22.6987 63.8895 22.6049 64.481 22.4172C65.0726 22.2295 65.5086 21.9575 65.789 21.601C66.0695 21.2445 66.2098 20.828 66.2098 20.3516C66.2098 19.8662 66.0505 19.5041 65.7319 19.2654C65.4134 19.0267 64.9284 18.9073 64.2769 18.9073H61.4933C61.1752 18.9073 60.851 18.9604 60.5206 19.0664C60.1902 19.1725 59.9133 19.3623 59.6898 19.6359C59.4662 19.9095 59.3545 20.3014 59.3545 20.8114C59.3545 21.2105 59.461 21.5516 59.6742 21.8348C59.8873 22.1179 60.2063 22.3327 60.6311 22.4791C61.0559 22.6255 61.5742 22.6987 62.186 22.6987ZM62.6381 12.5218C63.1197 12.5218 63.4887 12.4085 63.745 12.1819C64.0013 11.9554 64.1789 11.6297 64.2778 11.2049C64.3766 10.7801 64.4261 10.284 64.4261 9.71667C64.4261 9.12661 64.375 8.60718 64.2727 8.15838C64.1705 7.70959 63.9912 7.36159 63.7349 7.11438C63.4786 6.86718 63.1096 6.74358 62.628 6.74358C62.1625 6.74358 61.7975 6.87118 61.5332 7.12638C61.2689 7.38159 61.0833 7.73359 60.9764 8.18238C60.8695 8.63118 60.8161 9.15061 60.8161 9.74067C60.8161 10.579 60.9463 11.2522 61.2068 11.76C61.4673 12.2678 61.9444 12.5218 62.6381 12.5218ZM69.1181 18.4767V17.2042H69.4023C69.7332 17.2042 70.0257 17.1572 70.2799 17.0633C70.5342 16.9694 70.7354 16.7984 70.8835 16.5504C71.0317 16.3024 71.1058 15.9536 71.1058 15.504V2.97413C71.1058 2.54053 71.0091 2.22166 70.8158 2.0175C70.6226 1.81335 70.3942 1.67759 70.1307 1.61023C69.8671 1.54287 69.6243 1.50919 69.4023 1.50919H69.1181V0.236673H74.7679V15.504C74.7679 15.9536 74.842 16.3024 74.9901 16.5504C75.1383 16.7984 75.3435 16.9694 75.6057 17.0633C75.8679 17.1572 76.1565 17.2042 76.4714 17.2042H76.7555V18.4767H69.1181ZM83.2732 18.7167C81.3523 18.7167 79.8402 18.16 78.7368 17.0468C77.6335 15.9335 77.0818 14.2488 77.0818 11.9928C77.0818 9.74355 77.6109 8.06627 78.6692 6.96099C79.7274 5.8557 81.2881 5.30306 83.3513 5.30306C85.2722 5.30306 86.7843 5.8557 87.8877 6.96099C88.9911 8.06627 89.5427 9.74355 89.5427 11.9928C89.5427 14.2488 89.0136 15.9335 87.9553 17.0468C86.8971 18.16 85.3364 18.7167 83.2732 18.7167ZM83.3243 17.2042C83.9386 17.2042 84.4301 17.0071 84.7988 16.613C85.1674 16.219 85.4302 15.6327 85.5871 14.8544C85.7441 14.0761 85.8226 13.1222 85.8226 11.9928C85.8226 10.2751 85.6322 8.98677 85.2516 8.12789C84.8709 7.26902 84.2202 6.83958 83.2993 6.83958C82.3784 6.83958 81.7342 7.26902 81.3669 8.12789C80.9996 8.98677 80.8159 10.2739 80.8159 11.9892C80.8159 13.7046 81.0036 15.0025 81.3789 15.8832C81.7542 16.7638 82.4027 17.2042 83.3243 17.2042ZM95.148 24.1392C93.2706 24.1392 91.8648 23.8567 90.9307 23.2918C89.9966 22.7268 89.5296 21.9156 89.5296 20.858C89.5296 20.2989 89.6696 19.8167 89.9496 19.4113C90.2296 19.0058 90.6138 18.6831 91.1023 18.4431C91.5908 18.2031 92.1454 18.0537 92.7662 17.9948C92.3441 17.8322 91.9467 17.5893 91.5739 17.2659C91.2011 16.9426 91.0147 16.5017 91.0147 15.9433C91.0147 15.4169 91.2036 14.9614 91.5816 14.5769C91.9595 14.1924 92.4854 13.8216 93.1594 13.4645C92.4064 13.2136 91.7862 12.7724 91.2989 12.1409C90.8115 11.5094 90.5678 10.7101 90.5678 9.74306C90.5678 8.33922 90.9879 7.24826 91.8281 6.47018C92.6682 5.6921 93.9656 5.30306 95.7202 5.30306C96.3333 5.30306 96.8866 5.36218 97.38 5.48041C97.8735 5.59865 98.2972 5.76177 98.6511 5.96977C98.8761 5.7288 99.1122 5.50367 99.3594 5.29439C99.6066 5.08511 99.8851 4.91543 100.195 4.78535C100.505 4.65527 100.859 4.59024 101.258 4.59024C101.784 4.59024 102.182 4.72816 102.451 5.004C102.72 5.27985 102.855 5.60897 102.855 5.99138C102.855 6.37378 102.734 6.70987 102.492 6.99963C102.25 7.2894 101.831 7.43428 101.234 7.43428C101.234 7.10978 101.152 6.86249 100.988 6.69241C100.824 6.52234 100.628 6.4373 100.401 6.4373C100.211 6.4373 100.046 6.4613 99.9044 6.5093C99.763 6.5573 99.6308 6.61074 99.5079 6.66961C99.8635 6.99633 100.159 7.39929 100.396 7.87849C100.632 8.3577 100.75 8.94594 100.75 9.64322C100.75 10.9015 100.343 11.9319 99.5291 12.7344C98.715 13.537 97.4454 13.9383 95.7202 13.9383C95.5468 13.9383 95.3152 13.9286 95.0254 13.9092C94.7356 13.8899 94.52 13.8642 94.3786 13.8322C94.1581 13.9272 93.9521 14.0878 93.7606 14.3139C93.5691 14.5399 93.4733 14.7999 93.4733 15.0936C93.4733 15.3538 93.5723 15.5453 93.7702 15.6682C93.9681 15.791 94.277 15.8525 94.6968 15.8525H97.5063C98.5777 15.8525 99.4524 15.9992 100.13 16.2926C100.809 16.5861 101.31 17.0054 101.634 17.5507C101.958 18.096 102.121 18.7544 102.121 19.5259C102.121 20.9483 101.551 22.0728 100.413 22.8994C99.2738 23.7259 97.519 24.1392 95.148 24.1392ZM95.21 22.6987C96.1485 22.6987 96.9135 22.6049 97.505 22.4172C98.0966 22.2295 98.5326 21.9575 98.813 21.601C99.0935 21.2445 99.2338 20.828 99.2338 20.3516C99.2338 19.8662 99.0745 19.5041 98.7559 19.2654C98.4374 19.0267 97.9524 18.9073 97.3009 18.9073H94.5173C94.1992 18.9073 93.875 18.9604 93.5446 19.0664C93.2142 19.1725 92.9373 19.3623 92.7138 19.6359C92.4902 19.9095 92.3785 20.3014 92.3785 20.8114C92.3785 21.2105 92.485 21.5516 92.6982 21.8348C92.9113 22.1179 93.2303 22.3327 93.6551 22.4791C94.0799 22.6255 94.5982 22.6987 95.21 22.6987ZM95.6621 12.5218C96.1437 12.5218 96.5127 12.4085 96.769 12.1819C97.0253 11.9554 97.2029 11.6297 97.3018 11.2049C97.4006 10.7801 97.4501 10.284 97.4501 9.71667C97.4501 9.12661 97.399 8.60718 97.2967 8.15838C97.1945 7.70959 97.0152 7.36159 96.7589 7.11438C96.5026 6.86718 96.1336 6.74358 95.652 6.74358C95.1865 6.74358 94.8215 6.87118 94.5572 7.12638C94.2929 7.38159 94.1073 7.73359 94.0004 8.18238C93.8935 8.63118 93.8401 9.15061 93.8401 9.74067C93.8401 10.579 93.9703 11.2522 94.2308 11.76C94.4913 12.2678 94.9684 12.5218 95.6621 12.5218Z" fill="#5F5E5E"/>
</svg>
